<svg width="1440" height="1019" viewBox="0 0 1440 1019" fill="none" xmlns="http://www.w3.org/2000/svg">
<g clip-path="url(#clip0)">
<path d="M86.1053 441.244C78.9475 655.393 437.68 874 885.46 874C1333.24 874 2046.33 451.815 1707.66 441.244C1055.08 420.875 831.448 205.812 896.883 53.357C1014.07 -219.677 100.199 19.5853 86.1053 441.244Z" fill="#3F3D56"/>
<path d="M792.949 214.672L789.74 212.898L791.782 210.111L790.906 209.628L788.865 212.415L785.656 210.641L785.098 211.401L788.308 213.175L786.265 215.962L787.141 216.446L789.182 213.659L792.392 215.431L792.949 214.672Z" fill="#7864FB"/>
<path d="M1031.62 416.466L1028.41 414.692L1030.45 411.905L1029.57 411.422L1027.53 414.209L1024.32 412.435L1023.77 413.195L1026.98 414.969L1024.93 417.756L1025.81 418.24L1027.85 415.453L1031.06 417.225L1031.62 416.466Z" fill="#7864FB"/>
<path d="M645.352 391.923L642.142 390.149L644.185 387.362L643.309 386.88L641.268 389.667L638.058 387.893L637.501 388.652L640.71 390.426L638.668 393.213L639.544 393.697L641.585 390.91L644.794 392.683L645.352 391.923Z" fill="#7864FB"/>
<path d="M934.265 522.817L931.056 521.043L933.099 518.256L932.223 517.773L930.181 520.56L926.972 518.786L926.415 519.546L929.624 521.319L927.581 524.106L928.457 524.591L930.498 521.804L933.708 523.576L934.265 522.817Z" fill="#7864FB"/>
<path d="M665.764 472.368L662.555 470.594L664.597 467.807L663.721 467.325L661.68 470.112L658.471 468.338L657.913 469.097L661.123 470.871L659.08 473.658L659.956 474.142L661.997 471.355L665.207 473.128L665.764 472.368Z" fill="#7864FB"/>
<path d="M1312.68 405.558L1309.47 403.784L1311.51 400.997L1310.64 400.515L1308.6 403.301L1305.39 401.528L1304.83 402.287L1308.04 404.061L1306 406.848L1306.87 407.332L1308.91 404.545L1312.12 406.317L1312.68 405.558Z" fill="#7864FB"/>
<path d="M599.816 240.578L596.607 238.804L598.65 236.017L597.774 235.534L595.732 238.321L592.523 236.547L591.965 237.307L595.175 239.081L593.132 241.868L594.008 242.352L596.049 239.565L599.259 241.337L599.816 240.578Z" fill="#7864FB"/>
<path d="M868.318 271.227L863.824 268.746L866.683 264.844L865.459 264.167L862.599 268.068L858.107 265.585L857.327 266.65L861.821 269.132L858.961 273.034L860.186 273.712L863.045 269.809L867.538 272.292L868.318 271.227Z" fill="white"/>
<path d="M706.589 322.796C709.191 322.796 711.3 320.965 711.3 318.706C711.3 316.447 709.191 314.615 706.589 314.615C703.987 314.615 701.878 316.447 701.878 318.706C701.878 320.965 703.987 322.796 706.589 322.796Z" fill="#7864FB"/>
<path d="M522.878 322.796C525.479 322.796 527.588 320.965 527.588 318.706C527.588 316.447 525.479 314.615 522.878 314.615C520.276 314.615 518.167 316.447 518.167 318.706C518.167 320.965 520.276 322.796 522.878 322.796Z" fill="#7864FB"/>
<path d="M843.195 172.814C845.796 172.814 847.905 170.983 847.905 168.724C847.905 166.465 845.796 164.633 843.195 164.633C840.593 164.633 838.484 166.465 838.484 168.724C838.484 170.983 840.593 172.814 843.195 172.814Z" fill="#7864FB"/>
<path d="M799.23 422.33C801.831 422.33 803.94 420.498 803.94 418.239C803.94 415.98 801.831 414.149 799.23 414.149C796.628 414.149 794.519 415.98 794.519 418.239C794.519 420.498 796.628 422.33 799.23 422.33Z" fill="#7864FB"/>
<path d="M796.089 335.067C797.824 335.067 799.23 333.846 799.23 332.34C799.23 330.834 797.824 329.613 796.089 329.613C794.355 329.613 792.949 330.834 792.949 332.34C792.949 333.846 794.355 335.067 796.089 335.067Z" fill="#7864FB"/>
<path d="M1117.98 455.053C1119.71 455.053 1121.12 453.832 1121.12 452.326C1121.12 450.82 1119.71 449.599 1117.98 449.599C1116.24 449.599 1114.84 450.82 1114.84 452.326C1114.84 453.832 1116.24 455.053 1117.98 455.053Z" fill="#FF6584"/>
<path d="M637.501 306.434C639.235 306.434 640.641 305.213 640.641 303.707C640.641 302.201 639.235 300.98 637.501 300.98C635.766 300.98 634.36 302.201 634.36 303.707C634.36 305.213 635.766 306.434 637.501 306.434Z" fill="#FF6584"/>
<path d="M833.774 85.5519C835.508 85.5519 836.914 84.331 836.914 82.825C836.914 81.3189 835.508 80.098 833.774 80.098C832.04 80.098 830.634 81.3189 830.634 82.825C830.634 84.331 832.04 85.5519 833.774 85.5519Z" fill="#FF6584"/>
<path d="M705.019 212.355C706.753 212.355 708.159 211.134 708.159 209.628C708.159 208.122 706.753 206.901 705.019 206.901C703.284 206.901 701.878 208.122 701.878 209.628C701.878 211.134 703.284 212.355 705.019 212.355Z" fill="#7864FB"/>
<path d="M744.273 121.002C746.008 121.002 747.414 119.781 747.414 118.275C747.414 116.769 746.008 115.548 744.273 115.548C742.539 115.548 741.133 116.769 741.133 118.275C741.133 119.781 742.539 121.002 744.273 121.002Z" fill="white"/>
<path d="M1213.76 367.791C1216.36 367.791 1218.47 365.959 1218.47 363.7C1218.47 361.441 1216.36 359.61 1213.76 359.61C1211.16 359.61 1209.05 361.441 1209.05 363.7C1209.05 365.959 1211.16 367.791 1213.76 367.791Z" fill="#7864FB"/>
<path d="M901.292 382.789C903.893 382.789 906.002 380.957 906.002 378.698C906.002 376.439 903.893 374.608 901.292 374.608C898.69 374.608 896.581 376.439 896.581 378.698C896.581 380.957 898.69 382.789 901.292 382.789Z" fill="#7864FB"/>
<path d="M821.212 489.14C829.884 489.14 836.914 483.035 836.914 475.505C836.914 467.975 829.884 461.87 821.212 461.87C812.54 461.87 805.51 467.975 805.51 475.505C805.51 483.035 812.54 489.14 821.212 489.14Z" fill="#7864FB"/>
<path d="M1011.2 330.977C1013.81 330.977 1015.92 329.146 1015.92 326.886C1015.92 324.627 1013.81 322.796 1011.2 322.796C1008.6 322.796 1006.49 324.627 1006.49 326.886C1006.49 329.146 1008.6 330.977 1011.2 330.977Z" fill="white"/>
<path d="M70.0389 1001C70.0389 1001 65.7252 1016.95 69.6468 1017.64C73.5684 1018.34 92.7842 1018.11 97.4901 1018.81C102.196 1019.5 112 1018.34 112 1015.22C112 1012.1 101.804 1010.02 101.804 1010.02C101.804 1010.02 87.294 1003.08 86.9018 1002.73C86.5096 1002.39 70.0389 1001 70.0389 1001Z" fill="#2F2E41"/>
<path d="M75.3119 886.088C75.3119 886.088 76.6881 900.284 76.6881 901.536C76.6881 902.789 68.4312 968.759 70.2661 982.121C72.1009 995.482 70.0962 999.749 70.0962 1002.25C70.0962 1004.76 84.945 1003.83 84.945 1003.83L101 911.557L92.7431 884L75.3119 886.088Z" fill="#2F2E41"/>
<path d="M75.7391 1003.86C75.7391 1003.86 71.8261 1016.96 75.7391 1017.69C79.6522 1018.42 98.8261 1016.85 103.522 1017.58C108.217 1018.31 118 1018.42 118 1015.14C118 1011.87 107.826 1009.68 107.826 1009.68C107.826 1009.68 93.3478 1002.4 92.9565 1002.04C92.5652 1001.68 75.7391 1003.86 75.7391 1003.86Z" fill="#2F2E41"/>
<path d="M71.226 870C71.226 870 65.6456 882.076 72.156 888.323C78.6664 894.569 86.1069 907.062 86.1069 907.894C86.1069 908.727 73.0861 991.595 74.9462 997.009C76.8063 1002.42 76.3413 1005.75 75.8763 1006.59C75.4113 1007.42 80.5266 1012 86.1069 1012C91.6873 1012 100.058 1008.25 100.988 1004.92C101.918 1001.59 99.5928 972.856 100.058 967.443C100.523 962.029 119.124 875.414 116.799 873.331C114.474 871.249 71.226 870 71.226 870Z" fill="#2F2E41"/>
<path d="M106.5 774C115.06 774 122 767.508 122 759.5C122 751.492 115.06 745 106.5 745C97.9396 745 91 751.492 91 759.5C91 767.508 97.9396 774 106.5 774Z" fill="#9F616A"/>
<path d="M97 766.92C97 766.92 100.195 782.213 97.9127 783.867C95.6309 785.52 115.255 788 115.255 788C115.255 788 117.536 767.746 117.993 765.68C118.449 763.613 97 766.92 97 766.92Z" fill="#9F616A"/>
<path d="M117.597 786.322C117.597 786.322 120.601 771.559 97.7827 775.749C97.7827 775.749 76.949 791.119 77.8804 805.364C78.8117 819.61 70.564 860.901 71.4953 863.834C72.4267 866.767 65.9073 870.538 68.7013 871.795C71.4954 873.052 121.788 880.594 123.185 871.795C124.582 862.996 122.719 840.79 123.651 836.6C124.582 832.41 123.651 797.215 120.857 793.025C118.063 788.836 117.597 786.322 117.597 786.322Z" fill="#7864FB"/>
<path d="M108.645 887.847C108.645 887.847 101.588 912 110.527 912C119.466 912 118.996 887 118.996 887L108.645 887.847Z" fill="#9F616A"/>
<path d="M112.971 761.678C112.768 762.857 110.693 763.347 107.648 763.118L107.644 763.117C106.354 763.011 105.076 762.819 103.819 762.542C101.919 762.132 100.848 763.616 100.158 765.671C99.024 769.061 98.9384 774.013 97.9411 774.658C90.9793 778.037 70.4083 755.385 80.9494 749.521C84.7039 747.432 97.342 739.633 106.073 741.209C114.805 742.784 111.27 752.299 111.27 752.299C111.27 752.299 111.59 753.548 111.954 755.153C112.471 757.174 112.82 759.225 113 761.291C113 761.42 112.99 761.549 112.971 761.678Z" fill="#2F2E41"/>
<path d="M114.238 791.005C114.238 791.005 98.4032 790.17 97.006 811.037C95.6088 831.904 96.0745 851.518 96.0745 851.936C96.0745 852.353 102.595 892 108.649 892C114.704 892 119.361 891.165 120.759 889.079C122.156 886.992 117.033 856.944 117.033 856.944C117.033 856.944 114.704 825.226 118.43 815.21C122.156 805.194 122.622 792.257 114.238 791.005Z" fill="#7864FB"/>
<path opacity="0.1" d="M95.8 816.685L91 861.189L107 892L96.6 860.504L95.8 816" fill="black"/>
<path opacity="0.1" d="M117.894 821L119 874L115 845.208L117.894 821Z" fill="black"/>
<path d="M197.707 1019H0V1018H198L197.707 1019Z" fill="#3F3D56"/>
</g>
<defs>
<clipPath id="clip0">
<rect width="1448" height="1019" fill="white"/>
</clipPath>
</defs>
</svg>
