<svg width="150" height="151" viewBox="0 0 150 151" fill="none" xmlns="http://www.w3.org/2000/svg">
<path d="M2.3888 127.686L28.7258 101.174C28.7264 101.173 28.7267 101.173 28.7276 101.172C28.7284 101.171 28.7284 101.171 28.7293 101.17L38.1439 91.6927C41.3241 88.491 46.4999 88.4898 49.6813 91.6927L50.8353 92.8544L54.8112 88.852C47.022 79.4505 42.3286 67.3637 42.3286 54.1931C42.3292 24.311 66.4792 0 96.1637 0C125.848 0 149.998 24.311 149.998 54.1931C149.998 84.0752 125.848 108.386 96.1637 108.386C83.0803 108.386 71.0736 103.662 61.7343 95.8207L57.7584 99.8228L58.9127 100.985C62.0926 104.187 62.0926 109.397 58.9121 112.599L23.1573 148.592C19.9696 151.802 14.808 151.803 11.6194 148.593L2.38909 139.301C-0.792259 136.099 -0.792259 130.889 2.3888 127.686ZM96.1637 98.5308C120.45 98.5308 140.208 78.6409 140.208 54.1931C140.208 29.7452 120.45 9.8554 96.1637 9.8554C71.8778 9.8554 52.1194 29.7452 52.1194 54.1931C52.1194 78.6409 71.8778 98.5308 96.1637 98.5308ZM50.8356 106.792L43.913 99.8234L39.1118 104.657L46.0344 111.625L50.8356 106.792ZM17.3882 140.462L39.1118 118.594L32.1893 111.625L10.4656 133.493L17.3882 140.462Z" fill="white"/>
<path d="M96.1641 19.7109C98.8676 19.7109 101.059 21.9172 101.059 24.6388C101.059 27.3603 98.8676 29.5666 96.1641 29.5666C82.6743 29.5666 71.6997 40.6135 71.6997 54.1926C71.6997 56.9142 69.508 59.1205 66.8045 59.1205C64.101 59.1205 61.9093 56.9142 61.9093 54.1926C61.9093 35.1793 77.2761 19.7109 96.1641 19.7109Z" fill="white"/>
</svg>
