<?xml version="1.0" standalone="no"?>
<!DOCTYPE svg PUBLIC "-//W3C//DTD SVG 20010904//EN"
 "http://www.w3.org/TR/2001/REC-SVG-20010904/DTD/svg10.dtd">
<svg version="1.0" xmlns="http://www.w3.org/2000/svg"
 width="2132.000000pt" height="2543.000000pt" viewBox="0 0 2132.000000 2543.000000"
 preserveAspectRatio="xMidYMid meet">
<metadata>
Created by potrace 1.16, written by Peter Selinger 2001-2019
</metadata>
<g transform="translate(0.000000,2543.000000) scale(0.100000,-0.100000)"
fill="#000000" stroke="none">
<path d="M9494 25413 c3 -10 15 -90 26 -177 104 -813 -12 -1553 -354 -2261
-225 -466 -503 -880 -964 -1434 -169 -205 -296 -351 -702 -811 -401 -455 -462
-525 -648 -748 -89 -106 -164 -192 -168 -192 -20 3 -313 -578 -426 -845 -180
-426 -354 -960 -434 -1335 -10 -44 -21 -80 -25 -80 -12 0 -243 255 -336 370
-270 336 -469 712 -578 1093 -40 140 -82 334 -91 423 -6 55 -9 60 -28 58 -11
-2 -101 -5 -198 -8 l-177 -5 5 37 c73 532 216 1070 441 1657 36 94 78 197 94
230 30 64 29 85 -2 45 -95 -120 -320 -434 -434 -605 -225 -338 -367 -583 -521
-900 -723 -1493 -708 -3053 48 -4935 151 -376 412 -928 608 -1288 l50 -92
-147 106 c-801 579 -1385 1148 -1770 1724 -422 633 -652 1311 -758 2230 -8 74
-15 144 -15 155 0 34 -16 5 -83 -152 -441 -1020 -562 -2138 -362 -3329 170
-1014 577 -2089 1203 -3179 360 -628 828 -1315 1300 -1909 52 -66 86 -116 76
-112 -38 14 -322 170 -444 244 -880 529 -1677 1299 -2255 2177 -515 782 -863
1612 -1078 2568 -49 222 -41 227 -118 -57 -153 -559 -221 -1066 -221 -1646 0
-311 11 -484 47 -775 247 -1964 1473 -3936 3558 -5723 103 -89 249 -209 322
-268 74 -59 133 -109 131 -112 -7 -6 -539 267 -746 383 -948 531 -1731 1103
-2374 1735 -361 355 -656 702 -869 1020 -59 89 -56 85 -62 79 -6 -7 29 -235
66 -419 206 -1039 658 -2091 1334 -3100 462 -691 1015 -1338 1650 -1933 775
-725 1707 -1372 2565 -1778 102 -48 192 -94 200 -102 8 -8 40 -22 70 -32 30
-10 137 -51 237 -91 764 -307 1641 -501 2593 -575 211 -16 982 -17 1185 -1
253 20 504 50 720 87 1640 276 2742 1096 3139 2334 258 804 225 1833 -89 2777
-253 758 -667 1498 -1348 2411 -206 276 -348 456 -859 1094 -364 455 -664 839
-698 895 -11 18 -5 58 39 270 148 708 310 1226 490 1570 121 231 256 409 476
629 276 277 436 395 720 535 430 211 847 303 1375 303 432 -1 834 -67 1255
-209 215 -72 535 -206 535 -223 0 -4 -34 -36 -76 -71 -185 -157 -507 -523
-669 -759 -98 -142 -177 -323 -230 -526 -84 -325 -6 -852 232 -1548 110 -326
219 -605 550 -1417 91 -223 209 -518 263 -656 461 -1180 679 -2002 741 -2797
15 -198 6 -698 -16 -877 -158 -1281 -815 -2309 -2095 -3279 -85 -65 -213 -158
-285 -206 -71 -48 -149 -101 -173 -118 -24 -16 -41 -31 -39 -33 14 -14 639
160 957 266 1757 583 3227 1567 4350 2910 253 303 571 751 778 1095 413 689
747 1456 966 2223 372 1299 483 2696 325 4107 -23 207 -67 526 -73 532 -2 3
-9 -22 -16 -54 -80 -407 -261 -887 -502 -1338 -387 -721 -948 -1456 -1487
-1949 -77 -71 -149 -135 -160 -142 -11 -8 10 33 48 93 152 240 327 564 447
823 389 847 602 1664 691 2650 25 275 25 1116 0 1400 -61 685 -169 1297 -341
1930 -84 309 -107 383 -116 373 -4 -4 -17 -37 -30 -73 -72 -201 -245 -574
-389 -840 -558 -1029 -1204 -1887 -1650 -2189 -33 -23 -62 -41 -65 -41 -3 0
23 46 56 103 362 608 618 1350 727 2112 48 337 56 467 56 950 -1 480 -7 597
-56 975 -131 1015 -477 2075 -944 2891 -116 203 -352 547 -376 549 -3 0 -9
-87 -13 -192 -50 -1438 -480 -2693 -1306 -3808 -109 -147 -302 -391 -306 -387
-2 2 19 63 47 137 226 610 400 1344 473 2000 40 359 49 553 43 967 -6 467 -29
721 -103 1123 -30 164 -101 462 -112 470 -5 3 -59 95 -122 205 -204 358 -318
533 -395 604 -128 118 -167 -11 -195 -649 -41 -932 -55 -1123 -106 -1400 -100
-545 -339 -1075 -871 -1932 -57 -93 -107 -168 -110 -168 -2 0 7 21 22 47 483
823 769 1609 850 2333 79 716 -33 1383 -409 2420 -12 33 -13 32 -19 -53 -38
-483 -198 -1223 -369 -1702 -348 -973 -843 -1747 -1757 -2745 -221 -241 -1093
-1146 -1306 -1355 -182 -179 -455 -498 -666 -777 -508 -674 -851 -1377 -1048
-2147 l-49 -193 -37 118 c-360 1151 -347 2367 40 3704 161 556 361 1070 688
1766 603 1285 865 2115 941 2984 18 200 21 596 6 775 -84 997 -474 1896 -1215
2800 -124 152 -178 211 -171 188z"/>
</g>
</svg>
